<?xml version="1.0" encoding="UTF-8"?>
<svg id="Layer_1" data-name="Layer 1" xmlns="http://www.w3.org/2000/svg" viewBox="0 0 96.47 84.28">
  <defs>
    <style>
      .cls-1, .cls-2 {
        fill: #e1a500;
      }

      .cls-2, .cls-3, .cls-4, .cls-5 {
        stroke: #fff;
        stroke-miterlimit: 10;
      }

      .cls-3 {
        fill: #00008b;
      }

      .cls-6, .cls-5 {
        fill: #050505;
      }

      .cls-4 {
        fill: #fff;
      }
    </style>
  </defs>
  <path class="cls-2" d="m14.48,83.57C5.84,74.93.5,63,.5,49.82S5.84,24.71,14.48,16.07l33.75,33.75L14.48,83.57Z"/>
  <path class="cls-3" d="m48.23,48.23L14.48,14.48C23.12,5.84,35.05.5,48.23.5s25.12,5.34,33.76,13.98l-33.76,33.75Z"/>
  <path class="cls-5" d="m81.98,83.57l-33.75-33.75,33.76-33.75c8.64,8.64,13.98,20.57,13.98,33.75s-5.35,25.12-13.99,33.75Z"/>
  <rect class="cls-1" x="72.48" y="50.13" width="9" height="9" rx="4.5" ry="4.5"/>
  <rect class="cls-6" x="14.48" y="50.13" width="9" height="9" rx="4.5" ry="4.5"/>
  <polygon class="cls-4" points="51.68 28.63 44.78 28.63 48.23 21.74 51.68 28.63"/>
</svg>